/* XPM */
static char *collectible[] = {
/* columns rows colors chars-per-pixel */
"64 64 26 1 ",
"  c black",
". c #A88057",
"X c #A78059",
"o c #AD855D",
"O c #AF885F",
"+ c #B0875E",
"@ c #B1885F",
"# c #AF8760",
"$ c #AF8860",
"% c #B48C62",
"& c #B98F64",
"* c #B79067",
"= c #BB9166",
"- c #BD946B",
"; c #BF986F",
": c #C1966B",
"> c #C3996E",
", c #C89C6F",
"< c #C59C72",
"1 c #C99E73",
"2 c #CDA275",
"3 c #CFA478",
"4 c #D0A477",
"5 c #D2A679",
"6 c #D5A97B",
"7 c #D9AC7D",
/* pixels */
"76%441>72=%<<%%-1<6,176:75@>2;<<*-<12>5677@2>:%=%*&o%*<1;;<<66*7",
"5&2=52*::7-%;o;21>67=62:72>&%-1<-#<<;:=156::==261--;-#*<;<-177>-",
"@:,4%=<<<24-o*561474&&o57211=o;;*o;<<%1>=&%171257:211<#%<<;15,>@",
"742=O;6<<<<o:<4>:=:&1:4:=1<>&=%=>>=<>%16:=277:<17-57;1%%#;2&&465",
"7622$<61<<$$%%%-277:&<<<2:==272;,2:-<%=-:3225>,27=67:<%<=&=1=575",
"1,<<-%1<1%>521<*146>&<<;<7&<45<<>22=3%-=>2<<<752>=7721&o%1225:71",
"%*1<2:*>%%*2<1<<;<2&<1<<<2:2==1<;2<%*244+*>;*%==&:74;<%&14<<<&:&",
">%%>55&%<5*#<;3<<4-<662<::42>>&=;-,@-2216%+%=<464=62:o<=44<;<,>1",
"<-1=<6:773<*#1764==::>1>&;1:<<12*%=2;<<<>o%<776615=>%11%2<*1<2;1",
"<:17&:=771-;%<5:;676<:o%3<<-><-1=:-,>;<*o;<+52<<:6:&671#;>-<13;1",
"1<>%-:&-<;;;;$%#<67<<<<%33;<:%#2527-=-+-;<1%%<<-21-o*<:%<-;164<5",
"1*+<<<7-#<*%*%oo111:<1>*-7<*%1327477@@56;<+>%%62<&:57<oo*<1376>%",
"%6&>1373&#*-;<<%=<1;>:2-&<*o:3<<=776-==:4&533%:&-7716>-X&,::=%=5",
"5::71315-<6651<3=<7<<;:16:+:65;<-;<-272%.>6166%-67767&%%&4776=74",
"1&=76*><-1175<<16:<11<%2%%%&27;;-<%=776;o<<<>>:>:,71--1<#>77:476",
"<6:65:<<-:<36<117::*<;X-1<<>%><<>=O62,<<%>-<-%665:.:3652<o:&&471",
"@:&6511<-><<<426117:%+><3211%*2<:&26;<<1&;;-#6637:4=67764%576&<4",
"<,-&176<>-<<>176=::2::<2532<;o%&%-3><<<<-+*+46;;2:4@:4762%177>@&",
"<<<>&76<=+-<<<1%456:*,355-:<-X;   1;<<   #X:17><=@@51-:2<%177&<<",
"1326&:#=<2-&<-+>112<7-52<;1-o;<   =-;:   :>%-5<<&@5773%X&o%>:%<<",
",#%+:<1<<361&o;<<<<;52o>1;   <<   ,=22   65-%%;<+<<<25>#61466:=4",
"><1>%45<:<577:>22<;-,<*O$%   &---=   %      <*oX+>1<<<o<772777+:",
"62>2%24<;<1476&473;<;<%<65   5775<   %      <%o:<:%-<%=<474142:7",
"2267>-2;;<25     ;<<<   32<%2   2<   3      %*%<656<&+&*=:::,=42",
"<2741o;<1;1-     o;:=   <<;->   62   <         <64776*1<276<35=1",
"&--+#;+%<<**     <%%+   <<%><   <<   <         <27443%13761<<;*;",
"-65;%>61#*#6        %51;   =6   ><   <         ;5577:o1542<<<<-o",
"<<<*-555<#%7        @56>   *7   *1   6            67&:1<::-<<&+<",
":1>+%%%%*-%521;     <=65   %6   -1   %   =576=    <:1<=<>4<1%@%&",
"%%%12<;<:&%1121        -   =-   ;o   <   2:&=%       <%>::&@&572",
"7>57665:21o%153                          77=11       *oo%=261&17",
":&:72<2;<62;##:&<6                       76&:-       *-o<;6775@=",
"16>=767211<<o>7                          75&<<       <<**<3777=>",
"<<5<=262*%%+-<<        1<3*><%=211%177               <<<%1271:&1",
"<<55&%%1%***<<<     1>o*23225>;<<55-=-            77722<%1:*22*1",
">;5<%:<<%;>%        11#-   65   ;-   :            2777<;%*1676*6",
"251*%<<<;%>X        <<:o   :<   <<   %            &:46>%o57762-7",
"573$;224<%o-     633;<<%   ;<   *<   %         <<774:=%o-77647&5",
"56<+<7567%32     622;   X$%#o   -%   %         <<67777&&155266&<",
">>:%=776&376     <21;   21<<=   <-   &         :><21=&o><<<;-=&:",
"<574-25:+>76>22<%<<74   67   ><<;1   6      -%--=:;%-=:<<<<%#<1<",
">1772==57-27;,<>;o;15*o-77   &<<<<   7      -57477><<*%+%%o>31<<",
";;62@:4773%%+**:<*o#%o*177   +1      1   &=1775677<%+%=>1<%%531<",
"55:%7:7771+;>>6>&o*1<%366<*%o>=   571:   %:&55222-%*<<-:621-&166",
"2,:6,4661<+<<>77=>62<<-&%%%;17:   ;&-6   1,-@====><<<<2:26<<;%16",
"oO77:47,<;%<<:7:>75*<<74%11<<66=2<;%176425:721<2:4774166&2>><*,-",
"%O45+>22<;*<<1:&4>>>>11:&-<<<4>=<<-%>7772=27<<<<%%>46577:==-%o:&",
"<+=*$,,-<--<-%=4-212-&&>1%&<<=:<<><-o=41%%-:<,<=%5:%=274+2137662",
"--22O*>-<*2-+=;57::@:466,<:X+27<1;<o;3:o&<11>:-%152<o%<%$;-;1<56",
"+52-;2,O>%:;2;2;6-474777;2=6->562;o;<17#>117,&%6662<%36<%%;1<113",
";<;;-42=+57<2->2-277:;477>:61>:>;%*1<17%<<177=%*<<2*o%%%o%%%%o%o",
";<;272-5,77><<-<=772,;276=4;11*o%%<<-;<#<>157&5-%>-%<1<<%;11;o3%",
";2255:57257><237=76><;55-:6<<<<>$11-<<1&;;<<-<1:;o=76>25-;1-o1<+",
"%>75-7727:72;;26%-2;<22-o:6<<<1<%%-;<1%&%><;o<11<-272<<;6:%*;321",
"22%@54>>,7=;%O**>-%O;>Ooo=26<11=3*oo&:156=--<21>45&71<<<2%272<<<",
"2>@57,<<<,,2237-2<<2%o%2;*%%=,:<32;%677476:o677776=27><<<%675;1:",
"4=247<<<6;47754:77225:44;1<<#3771<<%23;<61<o<26777=@275<;%62<<22",
"&:=472<12%54:=@:67<<<,27<<<<o11111;%22>;3<*%>>+=:::4@=<*+%=1<14:",
"74,::,*>=>::,74:77,,<+%2-<:%#<<<<1-%1-<<42o<:2>>714,14%:=1&+=%-6",
"1<25=2-=@765777:,72-o*2+21%1;o<<3<*#-<<<2>-<<><=15474:56<176-&61",
"><<5,26:252;>>47,-:@2<<:--,74.+-6*$#%;>-%:4<<;,6:72,&37<<2672&74",
"4><=><<-23;<,:;65=:161<<<&=:>1>>%&21;##%=42<*<674@=,776;;<266=77",
"72<%><-2=2-<2;;=@>:47666&47776<7:2767>-55%*;1<>774:761:<><<16>17",
"762*1<<65-2<2;%O-<4-777,:=661;<<:<115:277<%2<<,25:@,3<1<<*<:74:7"
};
