/* XPM */
static char *exit[] = {
/* columns rows colors chars-per-pixel */
"64 64 4 1 ",
"  c #453210",
". c #5C4315",
"X c #89621B",
"o c None",
/* pixels */
"oooooooooooooooooooooooooooooooooooooooooooooooooooooooooooooooo",
"ooooooXXXXXXXXXXXXXXXXXXXXXXXXXXXXXXXXXXXXXXXXXXXXXXXXXXXXoooooo",
"ooooooXXXXXXXXXXXXXXXXXXXXXXXXXXXXXXXXXXXXXXXXXXXXXXXXXXXXoooooo",
"oooooooXXXXXXXXXXXXXXXXXXXXXXXXXXXXXXXXXXXXXXXXXXXXXXXXXXooooooo",
"oooooooXXXXXXXXXXXXXXXXXXXXXXXXXXXXXXXXXXXXXXXXXXXXXXXXXXooooooo",
"ooooooooXXXXXXXXXXXXXXXXXXXXXXXXXXXXXXXXXXXXXXXXXXXXXXXXoooooooo",
"oXXoooooXXXXXXXXXXXXXXXXXXXXXXXXXXXXXXXXXXXXXXXXXXXXXXXXoooooXXo",
"oXXXXooooXXXXXXXXXXXXXXXXXXXXXXXXXXXXXXXXXXXXXXXXXXXXXXooooXXXXo",
"oXXXXXXooXXXXXXXXXXXXXXXXXXXXXXXXXXXXXXXXXXXXXXXXXXXXXXooXXXXXXo",
"oXXXXXXXXoXXXXXXXXXXXXXXXXXXXXXXXXXXXXXXXXXXXXXXXXXXXXoXXXXXXXXo",
"oXXXXXXXXX                                            XXXXXXXXXo",
"oXXXXXXXXX                                            XXXXXXXXXo",
"oXXXXXXXXX                                            XXXXXXXXXo",
"oXXXXXXXXX                                            XXXXXXXXXo",
"oXXXXXXXXX                                            XXXXXXXXXo",
"oXXXXXXXXX     .......................................XXXXXXXXXo",
"oXXXXXXXXX     .......................................XXXXXXXXXo",
"oXXXXXXXXX     .......................................XXXXXXXXXo",
"oXXXXXXXXX     .......................................XXXXXXXXXo",
"oXXXXXXXXX     .......................................XXXXXXXXXo",
"oXXXXXXXXX     .......................................XXXXXXXXXo",
"oXXXXXXXXX     .......................................XXXXXXXXXo",
"oXXXXXXXXX     .......................................XXXXXXXXXo",
"oXXXXXXXXX     .......................................XXXXXXXXXo",
"oXXXXXXXXX     .......................................XXXXXXXXXo",
"oXXXXXXXXX     .......................................XXXXXXXXXo",
"oXXXXXXXXX     .......................................XXXXXXXXXo",
"oXXXXXXXXX     .......................................XXXXXXXXXo",
"oXXXXXXXXX     .......................................XXXXXXXXXo",
"oXXXXXXXXX     .......................................XXXXXXXXXo",
"oXXXXXXXXX     .......................................XXXXXXXXXo",
"oXXXXXXXXX     .......................................XXXXXXXXXo",
"oXXXXXXXXX     .......................................XXXXXXXXXo",
"oXXXXXXXXX     .......................................XXXXXXXXXo",
"oXXXXXXXXX     .......................................XXXXXXXXXo",
"oXXXXXXXXX     .......................................XXXXXXXXXo",
"oXXXXXXXXX     .......................................XXXXXXXXXo",
"oXXXXXXXXX     .......................................XXXXXXXXXo",
"oXXXXXXXXX     .......................................XXXXXXXXXo",
"oXXXXXXXXX     .......................................XXXXXXXXXo",
"oXXXXXXXXX     .......................................XXXXXXXXXo",
"oXXXXXXXXX     .......................................XXXXXXXXXo",
"oXXXXXXXXX     .......................................XXXXXXXXXo",
"oXXXXXXXXX     .......................................XXXXXXXXXo",
"oXXXXXXXXX     .......................................XXXXXXXXXo",
"oXXXXXXXXX     .......................................XXXXXXXXXo",
"oXXXXXXXXX     .......................................XXXXXXXXXo",
"oXXXXXXXXX     .......................................XXXXXXXXXo",
"oXXXXXXXXX     .......................................XXXXXXXXXo",
"oXXXXXXXXX     .......................................XXXXXXXXXo",
"oXXXXXXXXX     .......................................XXXXXXXXXo",
"oXXXXXXXXX     .......................................XXXXXXXXXo",
"oXXXXXXXXX     .......................................XXXXXXXXXo",
"oXXXXXXXXX     .......................................XXXXXXXXXo",
"oXXXXXXXXoXXXXXXXXXXXXXXXXXXXXXXXXXXXXXXXXXXXXXXXXXXXXoXXXXXXXXo",
"oXXXXXXooXXXXXXXXXXXXXXXXXXXXXXXXXXXXXXXXXXXXXXXXXXXXXXooXXXXXXo",
"oXXXXooooXXXXXXXXXXXXXXXXXXXXXXXXXXXXXXXXXXXXXXXXXXXXXXooooXXXXo",
"oXXoooooXXXXXXXXXXXXXXXXXXXXXXXXXXXXXXXXXXXXXXXXXXXXXXXXoooooXXo",
"ooooooooXXXXXXXXXXXXXXXXXXXXXXXXXXXXXXXXXXXXXXXXXXXXXXXXoooooooo",
"oooooooXXXXXXXXXXXXXXXXXXXXXXXXXXXXXXXXXXXXXXXXXXXXXXXXXXooooooo",
"oooooooXXXXXXXXXXXXXXXXXXXXXXXXXXXXXXXXXXXXXXXXXXXXXXXXXXooooooo",
"ooooooXXXXXXXXXXXXXXXXXXXXXXXXXXXXXXXXXXXXXXXXXXXXXXXXXXXXoooooo",
"ooooooXXXXXXXXXXXXXXXXXXXXXXXXXXXXXXXXXXXXXXXXXXXXXXXXXXXXoooooo",
"oooooooooooooooooooooooooooooooooooooooooooooooooooooooooooooooo"
};
