/* XPM */
static char *exit[] = {
/* columns rows colors chars-per-pixel */
"64 64 62 1 ",
"  c #453210",
". c #5C4315",
"X c #89621B",
"o c #AC845B",
"O c #AA845C",
"+ c #AD845C",
"@ c #B1885E",
"# c #B08961",
"$ c #B38B62",
"% c #B58B60",
"& c #B78E62",
"* c #B38C65",
"= c #B78E64",
"- c #B88F63",
"; c #B98F63",
": c #B88F65",
"> c #BA9063",
", c #B89066",
"< c #BA9166",
"1 c #BC9267",
"2 c #BD9367",
"3 c #BA9168",
"4 c #BD9368",
"5 c #BE956B",
"6 c #BD956D",
"7 c #BF986E",
"8 c #C0966A",
"9 c #C0976E",
"0 c #C3996B",
"q c #C0986E",
"w c #C1986F",
"e c #C39A6F",
"r c #C69A6D",
"t c #C79B6E",
"y c #C79C6F",
"u c #C29A70",
"i c #C49B71",
"p c #C49B72",
"a c #C69D72",
"s c #C79E74",
"d c #CA9F72",
"f c #C99F75",
"g c #CBA072",
"h c #CCA073",
"j c #CBA175",
"k c #CEA275",
"l c #CCA177",
"z c #CEA276",
"x c #CEA376",
"c c #CEA479",
"v c #D0A476",
"b c #D1A577",
"n c #D3A778",
"m c #D3A779",
"M c #D4A77A",
"N c #D4A87B",
"B c #D4A97B",
"V c #D7AA7B",
"C c #D7AB7D",
"Z c #D8AB7C",
"A c #D9AC7D",
"S c #D9AD7E",
/* pixels */
"AN&mmaqAh5&qa:=6aiNthAC5Am@afqau15aakqMZAA@ca9&:@4,o%3sa67aaAN4N",
"m&h;mkXXXXXXXXXXXXXXXXXXXXXXXXXXXXXXXXXXXXXXXXXXXXXXXXXXXX6aAAt5",
"%0tb&;XXXXXXXXXXXXXXXXXXXXXXXXXXXXXXXXXXXXXXXXXXXXXXXXXXXX7aMtt@",
"Mmk1@qNXXXXXXXXXXXXXXXXXXXXXXXXXXXXXXXXXXXXXXXXXXXXXXXXXX6k,&Mbb",
"ANjj$qNXXXXXXXXXXXXXXXXXXXXXXXXXXXXXXXXXXXXXXXXXXXXXXXXXX,,j,NZn",
"aaaa5$aaXXXXXXXXXXXXXXXXXXXXXXXXXXXXXXXXXXXXXXXXXXXXXXXX;axkn8Cg",
"$XXak839XXXXXXXXXXXXXXXXXXXXXXXXXXXXXXXXXXXXXXXXXXXXXXXXdciiaXX=",
"iXXXXb=&uXXXXXXXXXXXXXXXXXXXXXXXXXXXXXXXXXXXXXXXXXXXXXX4kkaXXXXj",
"aXXXXXXCAXXXXXXXXXXXXXXXXXXXXXXXXXXXXXXXXXXXXXXXXXXXXXX*kXXXXXXk",
"aXXXXXXXXfXXXXXXXXXXXXXXXXXXXXXXXXXXXXXXXXXXXXXXXXXXXXaXXXXXXXXj",
"jXXXXXXXXX                                            XXXXXXXXXm",
"dXXXXXXXXX                                            XXXXXXXXX&",
"%XXXXXXXXX                                            XXXXXXXXXc",
"mXXXXXXXXX                                            XXXXXXXXXk",
"dXXXXXXXXX                                            XXXXXXXXXC",
"tXXXXXXXXX     .......................................XXXXXXXXXk",
"+XXXXXXXXX     .......................................XXXXXXXXXk",
"aXXXXXXXXX     .......................................XXXXXXXXX,",
"aXXXXXXXXX     .......................................XXXXXXXXXa",
"kXXXXXXXXX     .......................................XXXXXXXXXa",
"aXXXXXXXXX     .......................................XXXXXXXXXk",
"7XXXXXXXXX     .......................................XXXXXXXXX6",
"CXXXXXXXXX     .......................................XXXXXXXXXA",
"kXXXXXXXXX     .......................................XXXXXXXXXk",
"aXXXXXXXXX     .......................................XXXXXXXXXa",
"=XXXXXXXXX     .......................................XXXXXXXXX6",
"5XXXXXXXXX     .......................................XXXXXXXXXo",
"aXXXXXXXXX     .......................................XXXXXXXXXa",
"6XXXXXXXXX     .......................................XXXXXXXXX:",
":XXXXXXXXX     .......................................XXXXXXXXXk",
"AXXXXXXXXX     .......................................XXXXXXXXXA",
"qXXXXXXXXX     .......................................XXXXXXXXX2",
"dXXXXXXXXX     .......................................XXXXXXXXX7",
"aXXXXXXXXX     .......................................XXXXXXXXXs",
"aXXXXXXXXX     .......................................XXXXXXXXXa",
"uXXXXXXXXX     .......................................XXXXXXXXXB",
"kXXXXXXXXX     .......................................XXXXXXXXXA",
"MXXXXXXXXX     .......................................XXXXXXXXXm",
"NXXXXXXXXX     .......................................XXXXXXXXXq",
"qXXXXXXXXX     .......................................XXXXXXXXXq",
"aXXXXXXXXX     .......................................XXXXXXXXXa",
"qXXXXXXXXX     .......................................XXXXXXXXXi",
"qXXXXXXXXX     .......................................XXXXXXXXXa",
"NXXXXXXXXX     .......................................XXXXXXXXXN",
"kXXXXXXXXX     .......................................XXXXXXXXXN",
"OXXXXXXXXX     .......................................XXXXXXXXX5",
";XXXXXXXXX     .......................................XXXXXXXXX>",
"qXXXXXXXXX     .......................................XXXXXXXXXh",
"3XXXXXXXXX     .......................................XXXXXXXXXA",
"&XXXXXXXXX     .......................................XXXXXXXXXx",
"uXXXXXXXXX     .......................................XXXXXXXXXo",
"6XXXXXXXXX     .......................................XXXXXXXXX&",
"6XXXXXXXXX     .......................................XXXXXXXXX@",
",XXXXXXXXX     .......................................XXXXXXXXXa",
"xXXXXXXXXAXXXXXXXXXXXXXXXXXXXXXXXXXXXXXXXXXXXXXXXXXXXXaXXXXXXXXa",
"aXXXXXXaaXXXXXXXXXXXXXXXXXXXXXXXXXXXXXXXXXXXXXXXXXXXXXXaqXXXXXXq",
"vXXXXdiaCXXXXXXXXXXXXXXXXXXXXXXXXXXXXXXXXXXXXXXXXXXXXXXa6>NXXXXb",
":XXkAfiaXXXXXXXXXXXXXXXXXXXXXXXXXXXXXXXXXXXXXXXXXXXXXXXX+,,aaXX5",
"ZMa8td3uXXXXXXXXXXXXXXXXXXXXXXXXXXXXXXXXXXXXXXXXXXXXXXXX,h,$,>2N",
"aakb,d1XXXXXXXXXXXXXXXXXXXXXXXXXXXXXXXXXXXXXXXXXXXXXXXXXXhAB2>Nh",
"qaabavAXXXXXXXXXXXXXXXXXXXXXXXXXXXXXXXXXXXXXXXXXXXXXXXXXXkNAj,Zb",
"xaa:quXXXXXXXXXXXXXXXXXXXXXXXXXXXXXXXXXXXXXXXXXXXXXXXXXXXXkNC,ZZ",
"Akq:uaXXXXXXXXXXXXXXXXXXXXXXXXXXXXXXXXXXXXXXXXXXXXXXXXXXXXaantjA",
"AZj:aaamm4kakq*@1av5CCAd8=mAkqugqqagb7kAAa#aaadhNq@acuaad,aqZM5A"
};
