/* XPM */
static char *floor[] = {
/* columns rows colors chars-per-pixel */
"64 64 26 1 ",
"  c #A88057",
". c #A78059",
"X c #AD855D",
"o c #AF885F",
"O c #B0875E",
"+ c #B1885F",
"@ c #AF8760",
"# c #AF8860",
"$ c #B48C62",
"% c #B98F64",
"& c #B68F68",
"* c #B79067",
"= c #BB9166",
"- c #BD946B",
"; c #BF986F",
": c #C1966B",
"> c #C2996E",
", c #C89C6F",
"< c #C59C72",
"1 c #C99E73",
"2 c #CDA275",
"3 c #CFA478",
"4 c #D0A477",
"5 c #D2A679",
"6 c #D5A97B",
"7 c #D9AC7D",
/* pixels */
"76$45,>72=%<<$$-<<5,276:75+,2;<<*-<22:5777+4,:$%$=%X$&2<-;<<77*6",
"5%2=52-=:7-$-X-2,,77=5,,72>$%-<<-X<<;;-,56::==272*--&@&1;1-<77:-",
"+:,4$=<<<33-X&572274$=X5722<=X-;-X-<;$,>=+$16<457:321<@$<<;15,>+",
"742=o;6<<<<X-12<:-:$2-2:=2<>*=$*;,*>>*25:=377><<7-56;<$$#-2==465",
"7622#>61<<o$%#&-377>%<<<2-==272-,2:-,$-=:3225>,27=66><%<===2=575",
"1,<<-$<<<$:32<1&<35,&1<-,7*,452>>22=3$=-><<<<752>=6721%+$<224:62",
"$*<<2:=>$$&2<1<<-<2=<<<,<2:2=*,,;2>$*245+->-&*=*=:74->$%23<<,=:=",
"<$$>65%$15-X<;2<<5=,763<;-42>,*-;-,X;23,6$+$*,474=62<X<=33<->>>2",
"1-2%<6:7721-X2755==::>1>=-1<<<<4*$=2;2<<;o$,776525=>%21$2<&<12-2",
"1-<7%:*772--#<3<-576<:X$3<<-<<-<=:-,>;<*X->o43,<-6:=57<@;;-<12-2",
"1<<$=:%:;<-;-#$X<77<<<<$33-<-$#2547==*o;-<2$$<,;21=X*><$>--263<5",
"1%X<117=#<&$&$XX<2<>1<>*-7>*$2327577++56;>+>$*52,=:57<.X=>2375>%",
"$7%<<372&X&-;<<$%<<>;<2==>*X-3<<-777==-:5*333$:$=7727>-.=,,:-+-5",
"4=:72316-17552<3=17<1-:15>O>75-1;->-272# >7156$-67757*$$=2776=74",
"1%*75*<<-2175<<26:<<<<%2%$$%27-;-,+-776-X<<<>::>:271=:2<O>66:566",
"<6:66-<<=-<27<<17-:=<<.*<<<>$<<<;=o72>2,$>-<-=665: -3542>X:%=272",
"+>=55211-:<<<426117:++><52<<=%2>:%17-<<1=-:=@6636:2=67765%375%<4",
"<>=%175<>-<<>276=::2,-<2533<-X$=&-4><<<<;@-@46;;4:4+>4742$277>$%",
"11<>=661=o-1<<2$256:*,354-><-.;67%1;<<<>5@.:17<<=O+61=:2<$<76%<<",
"1226%-@=<2-$>-X>11217-42<;<-X;<<74=-;><1:->&=4<1%+4773%.%X%::$<<",
">$$X:11<<362=X-<<<<-52X><-&$<<<177<%14:&165-$$><O<<<35>@52466>:1",
"><<<$45<><577>>321;-,<*o$$+-:*-===>+X$:575-;>-..O>1<<<@;764767+:",
"62>2$32<-<1476$472-1->$<551=65775<,:&@=151-<<$X-<:%=<$%<465141:7",
"2267>=3:-<2666$$-;<<2$2322<%2<>32<1-=3<:=.&$X%&<655<=+*==>::,=44",
"<2741X:<<-1;%$>22#-<=<6;<2-=;;<272<-%1176*X-<<%<66767*1<267<46=<",
"%-=O#-$%<<&&17752;$$+53><<*;<-<<<<<**1<17%<6<;&<16462$13761<<-=-",
"-55;%>61X&@576<<<31<+52--,-*62;-:<3>-1<<>%671*&-6477:X1552><<1-X",
"111*-255<$%73<<2275-$55,2,;*73<>*1<%3573$1777@<<<466%:1<:>-<<%@1",
">1>X$$$&%*%32<><75$,,=552-<$532;-<&@%&$%%=575=2<><<-<<*<>4>2%+$%",
"$$$22<-<;=$112<<7=:-,:-:$X$&-576;X&<;;11:2:$=%%<1<=$<<%>>:%+%372",
"7<57755<21X&153<-15,=6775222oX&>$#<<<;57277=11<%%$X$**XX$=262$<7",
"-%=72<2-<71-@X>=<675:6<<272;-o;X@;<212;-177*--<<11=%%*-X<-6775+=",
"16>:6672<<<>X;5><75$X-1<15>-1##$*X&175<<273%<<<<<%->1<1&&<3777=>",
"<14>-262*$*+-<2213%1-X-1<3*;<%&21<%<772<33->2>-<%=35-<<<%<17<>%1",
"<>55%$%<$*=*<<,25*-;2;.-22325;-<<35==-#@%$o57><-=177732<$<-%13&1",
"<-5<+><<*-;$<;24=-<;11$-<<;632%1<-73=:%-&>==3-X#=%2777<:$%2775-5",
"252*$<<<-$<.$$-%32<-<<-@<<-;<-@<<<-<*$<<>352$X$;14%:46<$.57762-7",
"573#-443<$$=243-7632;11#-<1;<-X$*<<<-$11<;<2>o<<1774:=+X-77747%5",
"65<X<7567$22;<2-5522-11*XX###$<<-$*%#$1<>><<<$2,>67766%$156265%<",
":>-%*775=2772,>2$<22;<<$<2<<%<<<<->15$-276<<<=2:><21:%O<11<--==:",
"<574-45:+,76>22<$<<72<-X7711&;<<;<<575=677,2-+-=-:-$-=:<1<<$$<<<",
">1672==47-27;>,;-o-25-X-7771>=<>1<2777=:54:X-67577><<*$+$$X;3<<<",
";-72%:4773o$+**;<-XX#X&17751<@1773777,=-+=-,774676<*+$=>1<&$53<<",
"55>$5:777<o->>6,*X=<<$275<-$X:*777371:<<>%:+43222-$*><-:52<-%177",
"3,>5,4662>o<<>76=,6<<<=-$$%-17:::<>%*7><12,-+==-=,<><12:26<<;+16",
"Xo77:471<-$22-7::74-<<63$1<<166=2<-$176424-72,<3:4774165%2>><*,-",
"$o55+>122-&<<<:=4<;>:,2-%=<<<4>=<<-=<7772=,722<>%$>46577>===$X:=",
">o=$$,,-<-;>-$=4-222-==>1&%<<=:><-<-X=21o*:,>><*$5:$=275X2246662",
"--22X*>;,*2-+-;37:-%:265,<:X+47<2;<X;3>.%<12>>=+<52<X*>*X--;1<57",
"+52->2,o>$:>2-2>6-474777;2=5=>562;X-<17#><17,%%6662<$35<$&;<<<<3",
";;;;;43=o57>2->2-277:>377>:52>>;;X&2<17$<<,77-$-<<2*@$$#.*%$$X$X",
"<2-252-5,77;;<*2=772,-376=5-<<*X%$<1-;<X<>165%5*%>*%<111$>11>X2%",
"-2255:57257>2227=76>,;65-:7><<<>#<<-<<1%--<<-12>-@=76>25>-1*X2>+",
"*;75=7537:62;;26$-2;>22-o:5<<<<,#&-<11%%*><;X><<<-272<<-5-%%;22<",
"32*+64>;,7--$o**>-$X><ooX=27<2<=3&XX$:256---,21>34=71<<<3$273<<<",
"<>O47,,22,,2237;2<<2$X$,;*$$=<>,52;$676475:+677776=27><<;%773><>",
"4=247<,<5-47754:77223:33;11>$277<<<$22;<61>X<25777:+263<-%62><25",
"=:=272<<2*52:=+:77<<<,55<<<<@1<1<2;$22<-5<*%>>O->:=4+=<=X*=<<14-",
"74,-:,->=:::,74:77,,<+$3-<;$X<1<<2*%<-1<42X<-3>>644,24$:=1=$=$-6",
",,34-2-=+775777:,72-X*2o2<$1-@<15>*#-<<<3>*<<><=15474=37<175=%61",
">2<3,35:25<;>;57,-:+2<<>-=<74.X=5*$X$;<&+:51<-<6:64,=27<<2672=72",
"3><*;><-33><,:;64%:171<<<==:>2<:$%21-$#$-42<-1674+=,777-:<267=77",
"72>$><-2=2-2,;;-$>-57656%47775<7:2767>-65$--<<>674:771;<<<<<5,17",
"772*2,154-2<2;$o-<4=777,:%772:<<>><24:277<#2<<,44:+,2<<<<&<>74:7"
};
