/* XPM */
static char *player[] = {
/* columns rows colors chars-per-pixel */
"64 64 58 1 ",
"  c black",
". c #0C0A07",
"X c #16120C",
"o c #19130E",
"O c #1B1510",
"+ c #2B2116",
"@ c #2D2319",
"# c #31271C",
"$ c #352A1E",
"% c #362B20",
"& c #443525",
"* c #4B3B2A",
"= c #54422E",
"- c #5F4C38",
"; c #6C543B",
": c #70573D",
"> c #72583E",
", c #755D43",
"< c #795E44",
"1 c #7C6146",
"2 c #7D6449",
"3 c #82664A",
"4 c #866A4D",
"5 c #8B6D4E",
"6 c #96734F",
"7 c #8D6F51",
"8 c #8E7152",
"9 c #957555",
"0 c #9B7853",
"q c #9B7B59",
"w c #A07C56",
"e c #A17F5D",
"r c #A88057",
"t c #A4815E",
"y c #AD855D",
"u c #AF885F",
"i c #B0875E",
"p c #B1885F",
"a c #A78460",
"s c #AC8761",
"d c #AF8961",
"f c #B48C62",
"g c #B98F64",
"h c #B79067",
"j c #BB9166",
"k c #BD946B",
"l c #BF986F",
"z c #C1966B",
"x c #C3996E",
"c c #C89C6F",
"v c #C59C72",
"b c #C99E73",
"n c #CDA275",
"m c #CFA478",
"M c #D0A477",
"N c #D2A679",
"B c #D5A97B",
"V c #D9AC7D",
/* pixels */
"VBfMNbxVnjfvvffkbxBcnVBzVNfxnlbvfa    4VBVpMxxfgfkgyfhvvllvvVBgV",
"NgnjMnkjzVkflyknvxBVjBccVnxgfkvvk9    <bNBzzjgMBbkklkskvlvkvVVxz",
"pzcMfjvvvnMkrkNVbMBMggyNVnvbhykxk6    3xjgfbVvMMBxbbvvsfvvxbBcxp",
"VMnjulBvvvvylvmvzzzgbznzjbvxjjfhxs    4NzjnVVxvvVkMVxbffszbhfMBM",
"VBnndxBbvvddfdfknVVxgvvvnzjjM93113*&*&5jxnbnNxxnVjBVxvfvkgkbgNVB",
"bcvvkfbvvfxmnbvkbMBxhvvlvVfcM$   onjNfjjxvvbvVBMxjBVbbgyfcMbBzBv",
"fhvvnzjxffkbvvlbkvngvbvvvnznj@   ovffnNNpkxlkfgjgzVMxxfgbMvvbgzg",
"vffxBNffvNkdlvnvvBjvBBnvxkMnx#   ocplnnbBfiffvNBMjBMxyvknMvkvcvb",
"vkbjvBzVVmvkybVBnjkzzxbxglblv#   ojmlvvblyfxVVBBbMjxgbbfnvklvmlb",
"vzbVgzhVVbklsvMxxNVBvzyfmvvkv#   XjcvkvfslvpNnvvxBzgBVvilxkbvmkb",
"bvxfjzjzvvkxldfyvVBvvbximmkvl@   oVjjkikkvbffvbkbbkyjxxfvlkbBMvB",
"bhsvbbVkyvkdhfyybbbxvvxkkVxkf@   OVVpfMBlxfxffBnbgzBVxyihxbNVBxf",
"fNgxvMVbgshklvvfgbblxxbzgxhyx$   OVBjjjxNgNnNgzgkVBbBxkejcczkfjN",
"NzxVbmbBkvVBNbvmjvVvvzznBxixB$   ovknVnfwxBvBBpkBVVBVhffgbVVBgBM",
"bjjVBhxvkbbVNvvbBzxvvvgbgfdgn$   ofjBVBlivxvxxzxzbVbkkbvfxBVzMVB",
"vBzBMxvxkxvMBvbbVzxjvxekvvvxf#   XdBMcbvfvlvkfBBBzrzmBMbvyzggMBM",
"pzjMNmbbkxvvvMbBvbVzfixvNnvvj+   OnBlvvbhkkkdBBMVzMzBVVNBfmVNgxM",
"xcjgbVMvxkvvxbVBjxzMxzvbNmnvv+   XmvxvvvzdjynBxxbzMixMVBbfbVVcfg",
"vbvvgBBbkikbvvbfMBBzgcmNq@##@.   .%@@#4vNdyzbVvvjipMbkxbvfbVVgvv",
"bMbBgzdhvbkhvkixvbbbVkNn2             1mxzxfkNxvgpMVVMfrgygxzfvv",
"vdfixvbvvmBbgszbvvvlBbyv1             <fbBNkffxvivvvnNxsBbMBBzzb",
"xvbvfMMvxvNVVzxbnvlkvvgy;             <NNNjxxkyeixbvbvyvVVnVBVpz",
"BbxbfMMvkbbMVBgMVmlvas0s1             ,hkdebvdylvzfkvfgvMBBbMbzV",
"bMBVxhmxkbbNVBgfjlvvO                      fdhfvBNBvgpghkzzzcgMM",
"bbVMbdzxbkbxfhxbnskxo                      kvbhvBMVVBkvbbVVxMBgv",
"gkzddkdgxvhhbVBBnvffX                      BvlfvbBMBbfbMVBbvvljl",
"kNMxhxMbdjdNVBvvvnvvX                      VbkflBBVVxsvMNbxvvvky",
"vvbhkMMBxdhVMvvbbVBz134<*             =2:35VBflvvMBBgzbvxxlvvgiv",
"xvxifffhhjfNbbxbVBgccgBM3             :ffkNVBkbbxxvzvvgvxMvbfffg",
"fffbnvlxxhfvbbbvVgxjcxzk>             2nxnzfgfgvbvkfvxgxxzgpgMVb",
"VxBVVBMxbbshbBmvxbBxgBVV4             4VbVVgbbvggfyfkhyyfgMBbfbV",
"xgkBnvbxbVbzddzgxBVNzBbv<             ,lbVVgxkvvbbgffhkyvlBVVNfj",
"bBxjVNVMbbvvylBvvVNfyxbv1             1vbVNfvvxvvfzxvvvhhvMVVVgv",
"vbNvknBnhfffkvnvvNfblrlv<             2vNmxxbvkvfzmNkvvvhvbBbxgb",
"vxNNgffvfhhfvvcnBfklblyh2             :dffiBBvxzgbVVVMMxfvxgbbhb",
"vlNvixvvhkxfvlnMgxblbbfk2             :xhxjkNksdggnVVVvvfhbVVNkB",
"nNbkfvvvkdveffzjnmvkvvxy1             1bxnNvfrfxbBgzMBxdyBVVBMkV",
"NVmyxnnMvfpkbMnkVBmnlvvi,             1vvlvnvfvvvVVBzgfykVVVNVgM",
"BNvyvVNBBgMnvvnjNBnnlvvj;             1vxvvvvfvvvBBVVVffvMBbBBgv",
"zxlfgVVBgMVBbvvnfvnblvvf1             1nVBvvvgnxxvbbzficvvvkkggx",
"vBVMznNzicVBxnnvfvvBNvky4             <BVVbvkfjjkzlfkkkvbvxddvbv",
"xvBVnjjNVkbVlvvxlylbNkyk5             ;jBMxykNVBVVxvvfgfffyxMbvv",
"llBnpzMBVmffphjxvkysfrkv5             ,kfgjcVVNBVBvfifjxvvhhMNbv",
"MNxfVzVVVvilxxNxgyfbvfnB4             <vxfzgNMnMnkfhxvkzVbvkhbVB",
"nvzBcMVBvvfvvxVVjxBvvvkk;             ,vbbczpjjjgcvxvvbzMBvvxfvB",
"yyVVzMVcvkfvvlVzxVNkq9tq*             ;qqe7BbbvnzNVVNbBBgbxxvhvk",
"fpNNpxnnvljvvbzgMxxvX                      VbvvvffvMVNVBcgkjfizg",
"vpjgpvbjvkkvkfjNzbnnX                      xvvvjgMkfgMVNibbMBVBb",
"kknbuhxlvhnjpklNVzjfo                      bzxkfvMbvsgxfilklbvNV",
"pmnklncuxfzznlvxVjBVO                      VcffNBBmvfNBvdflbvvvm",
"lvvlkMmjpBVxnlvvknVV88qt;             -3990VVzfkvvbkyffsyhfffyfy",
"vblvBnjBxVVlvvknjVVnvlmV4             2yvxbNNgMkfxkgvbvbfxbbxynf",
"knnNNzBBnNVxvvnVjVBcnxBB1             2gllvvzbbxksgVBvmNzlbkybvd",
"hlVNzVBmVzBmlvnBfknkvcnk;             ,ggxvlixbvvkMVbvvkBzfhxnbb",
"mnfpNMxxcVjkfdhjxkdylxuy;             3NBjkjbbbxMNgVbvvvnfnVnvbv",
"vxpNVcvvvccmnmVkmvvnfyfv,             4MVNxiBVBVVBjnVvxvxfBVNlvx",
"MjnMVvvvBkMVVBMzVVnnmxmm<             <vBbxyvnNVVBzpbVMvxfBnvvbN",
"gzjMVbvvnjNMjjpzVVvvvcMB<             1lNvkfxxizzcgMfjvgsfjbvbMk",
"BNczxbkxjzzznNMzVVccvufN<             1vnnivlnxxBMMbbMfxjbgpjfkB",
"vbnMjnjjpVVNVVVxcVnkyhvp3    =114;    1vnxkxvlvgbNMVMjNBvbVBkgBb",
"xvvMcmBznBvxzlMVcjzpnvvx>    <ykNt    1kizMvvkbBzBMcgMVvvnBVnjVM",
"MxvjlcvknmvvcxkVNgznBbvv3    qxxfw    ;fzMnbkbBBMpgcVVBlxvnBBgVV",
"VnvfxvknjnlvvllkpxzNVBBB<    qvBxf    <BBpllvvcBVMzVVblvxvvvMcbV",
"VBnjbvvBNjnvnlfukbMjVVVc>    7vvxs    3VBbsbvvxMNzpbnvvvvhvxVNzV"
};
