/* XPM */
static char *wall[] = {
/* columns rows colors chars-per-pixel */
"64 64 44 1 ",
"  c #1E7597",
". c #1F7698",
"X c #207799",
"o c #247C9E",
"O c #287E9F",
"+ c #267EA1",
"@ c #297FA1",
"# c #2780A3",
"$ c #2A83A6",
"% c #2B86A9",
"& c #2D89AC",
"* c #3186A7",
"= c #3187A8",
"- c #348AAC",
"; c #3A8EAE",
": c #378EB0",
"> c #398FB0",
", c #3C92B3",
"< c #3F98BA",
"1 c #4295B6",
"2 c #4A99B7",
"3 c #4397B8",
"4 c #4599B9",
"5 c #4B9DBC",
"6 c #519FBD",
"7 c #4EA0BF",
"8 c #51A0BF",
"9 c #4EA1C0",
"0 c #53A3C2",
"q c #59A6C4",
"w c #5BA9C6",
"e c #5EABC9",
"r c #62ABC7",
"t c #63ADCA",
"y c #68AFCB",
"u c #66B1CD",
"i c #6BB2CE",
"p c #71B5CF",
"a c #6FB5D0",
"s c #73B7D1",
"d c #76B9D2",
"f c #7BBBD3",
"g c #82BED6",
"h c #85C0D7",
/* pixels */
"$+$%&,-%4&%++#++*##*8* #*2,####;#1# ###21#.#X#$$*8#*##XX8* #&%e1",
"oo%%$5#&0-+##$+%####8#  ;28#####1## ##*2,*.###$$871####-8*#&%8f-",
"+$%%&w$+9,o#%#o-##*#8# #*2p1####8#####12#$=####4d$4X.##8;#.,rh8$",
".$%%e4$+,9.###%@###*8# ##*##$,$;8* ###2*##,$###,f8;##$-8#.-87w##",
"#&4y0$+#%0-+##-O###2;# ##*#  ;y;8%#$#$8#$;,,$$#-fi## $*1#*#$*7 X",
"%,&a-+.%%w1X$$-o ##2;  ##;# ##;8s1#**$8$%#&-<:#%8,  #$17;.##*,##",
"%-%5,+$%:e3o@O;o###;*  #$*#####-i#*$$$8; $$$;:,$1-X ##;1X#X#-1##",
":$%13.#%,;4oX#1-##**;###$;#####*8##-,;8&##%$;#818=#X##1;X ##,-##",
"-#%,4#-:,=tXX;%;##1##*###$*###%$7$.$%$8%##%$1$*yr#XX##7*X#X#*-*#",
"-$$%,-#$;#p8-%oO;#8##2****1##%&$7%#$%-8$ #%*8##*p*X##X1#.X##-1%#",
",$$$5##+-O#=X#o-*1y18## ##%,%%**w%##$7;##$%:1# #1; #o**X.X#X-w,,",
"-#$#,%#$-oooXoo-##pf##X####-$%#28u*##7###%$;1# ##;# #*oo####%8$#",
"-$#o;OX&-#ooo##-##18   ####;;28#$*r*#*$####,1# #$-#X*##o###$#e&#",
":%$#,o#%4oo#%%-*##8-  #####*X#1###*8*##X###4;.#$#*#1#####$%#*e7.",
"5%o$-#o%0%o#o$o,#*8*#.$###*## #1 #.-- ##$#$e;#.##1*X###X1877q-eq",
"3+o:;o#%4,X$o-;5;82# ##$***##X#**###7 ##$#%i-XX$#;###X#77==87###",
",-O,,oo$=r%o#1o;*8#.#%$&#;## #X#-#X#,=##X#88$ ##*##X#X66#*2rX#X;",
"$5=#-=ooO58#44#,#=o.%##$*1-##X##-#X##4X#$7r$-#X#-*##***##rq**##;",
"-1#o*;#oO#8ui,#=$*#$$%,:2;1#X##*#;X##-42y2##*##$****###X;p*####;",
"&:,#-o,#oO##q$$#18*#$,%%*XX1###X#2#X##8p;X#X-41=###XX###2;X ##**",
"%oX*%*o1#$$#7-$*wy7#,&&$*###*##X;8r###%8#X##,,71X#X##X#X1#####;#",
"$#;#o,#$1$#$2;-u,$wt,%$%-X##1#X1##87#%#8X###>%$7 X######-$ %#*##",
"$$;#o$,o#*--q#*8$Xo7*##&2###*#*;##18*;*,;-;$>%-0#X#XX###,$#$#;*#",
"$:*##&,,$;,<-;*8y#-t4**--*##**##X#;8##14##X,,&>8#X#####*-$$#*#*#",
"%:$$#&-$3:&#X,;%2wd887#X#1#X1#XX#$14# *p4#=-;-4w####$#$8-%##*$#%",
"%:$#%$,5$$$&88$$1r-o 1y*#X;1##X#*$87##-y7q;#%-yi#.#$##y7$###*##$",
"%7$#&%1#-,qe2$oX1#XX X28##*#X#X###fp=,*$# ..#%7,w#$%%8d-###-###%",
"$0%$$22#o,::=1X#11XXo##8*X-X#X#*#,r7p8;#.#$##$:&1*#-r8w####-###$",
"%w,o*u#$,%oo#1,$#*##X#o18#*#X###$e%%=yy7%$$$$%$<$-$-,,e#.$;$###$",
"&4w#u4O#3#o1;ooXX#;XX##,f8.#X###;>%##e=88$$%%%%%,$$###8%.,%%##$$",
"%&aiio*#-5,*ooXo##*#o##-hyXX####><&#,u$X#-&%%$%$$;###$8-$$$$#$$%",
"$97&w7-o#+,ooX#o##o-###yif-####-$%,$,8$.$#-$<ysp8r;#$-u#####$%#%",
"%w&XO1ooo#;ooo+oo$o=#*rdif3.%#:=%$$1$8$.$$%,sg3=-,8-$2s$X$$$%%$%",
"*8o#*ooXo#=oX+o@o$o;-pwoX@8>-,:%%#$<#$,.%$$%swX.XXX-#wf4.$$$$$%%",
"4,o#-oooo$=+oooo$$#0ri%XXXo+.:%%$&4%%#>#+%$%tq .$++@2w>y3$$+$%%+",
"t%oX;Oooo#,oo+o+$o%fh2X o+$#+,$o%<8&#%,$+$%%3a.X++$+-ooXwq%$$&%+",
"uoooo;oooo&-ooO$o#qyf* .$#$$-,%$,<qee4:%@$$&,ioXo+#+=+o+:7>$%$$&",
"p--1%=*oo#o4%%$++,oo-* #%+#%3%%>%%:*%i0%%%%%3so +o@+;#o$$@$-$:9e",
"18 %=o,$ooo%2$++=-#+#-#ooO%,==$:&#,-%;u0%$$%eq$ oo@$=+o+$+++::::",
"O6X#;;3w#OO#-$13,$o+%-+O%;>o,,>%%#<,#,,$=-->5%6@+oo+>$#$@++%$$$+",
"=,oX-*0;q$$#-%>+##o##-&,>$$-+$#&#:&:#,3#-o++oo%r>+o+$:+$$+$%%%$$",
"*ooX$,9=4t&$,$-%+oo$#-<-$%#=o$&##:%:$-09+$+$$$@0g*oo@:%$$+$+$$&>",
"o#Xoo-t4.45$,%-$o+##+1%,&@$,+%$%3&$,%3w,++$$$$+=ryX+$&,$+$++-::+",
"oX#o#o,to+2q&&;$oo$o%=%$>%>q,#$,,&%:%0-+..%$$$o-=s-o$&$>+++-:%%+",
"o#o#o#$w,X%e,#:$o#oo;o%o$>p3,@:%$%&$&7$oo++$++o;O2ao+%:9$$5>$+++",
"oooo#%%73.+:1X,:#%o;#O++qs8$o;*$$$&-#5%X++$+++1oo@pw+%:0$4q$++o+",
"#$##$%&40o+%$==:%#o;oo#*s8++.51+#$%:#-&+$@+++=@+o$165@>t3s,$+++o",
"$oo#=:&0,oo$$&#o*11$@o#1e+ +$q&+#$%7$#,&+++@>@+o+$$$0*:ss5,+++++",
"oo*;<0tf>oo$%$@%,$*o##$3qo %&q%o+$$01O%;O;-;ooo#$%$$&w::,..%--q5",
"8,*$%#+3wo$%%+@;$o-o+$$12o.%>0$.%$%>ro#%5$ooooo$$$$%$::o+..#$o+6",
"u%#$+#%+65+$%o>$%#-$#$$11.o%35+o$%%$02Xo2-oooo@$$%%&%$:%#%$$$#+$",
"5- +$%$$$$$-;,-$$%:%+o#;1o+%33+o#%%%,0XX-wXoo+#%$%$%%$$&,%$%&%=%",
"r4o#$%%%&$+$o-+%$:$$ooo#-++%4u$$%%,,tqoXo0,Xo$$$%%$%,,%%:##$%%uy",
"qt-#%%%%$+%%$,$#&:%#oo#$:$+%>dy1:7eaf,XXO>q+#%%$$%%<%&,$,%#%#qe-",
" 1r,%$$$&,::>:%#%w=oo#o%,%#%$590t9--u-..+#e,%$$$$%4<$$-$,%%$3u,o",
"Xo+o;>:,&%$-3%%-37,ooo#&:%#%$:$o8=Xe8+..+$q-=%%%%%4:++$4,->$tw; ",
"++$+++++#+$&:$+40&1Xoo#&,%#$,$$#,wws%XXo+@0>.-o$%&e3++,3%o+qq5w.",
"o%%%$$%$%%%:9&:f8#5=oo$&,$-,-%#$$:2uo oo$o0,+,$$&,d:o$:5#oo=,,5=",
".+#%%$%$$%$w95e0w8t8o##$54-%###$%%17. o$o-w+%t,$$qe$ +>y+o+o@>+>",
"e&%$%$$%%%&w%> #6,$q,oo=aw&%.o$$#o,q@ $+Ot;oX-t-8u&o.%,s=.o++-;,",
"<e%@$$%$&%53&$@+8#;X%=ow4q3,=#$$#o3is4%#t2oX.+,sg0@+@$wg> ++++$>",
"+>q%%&%&%%q3,o++,o$5$#=,$3; --$%%O=*tfii6oo.+%$,d3+oo;t53 +++$$:",
"%+59$$%%$3e,oo++=oX0y-%##,=.X-$%$o-oX*-1;X.o+++%q4 .%t-ow.+$$&$>",
"@+%:>#:,,>%+ +$+-#o=r1--o5=ooo;%%#-oo$#-, ooo+$%>0o+-++oe$.$$&,3"
};
