/* XPM */
static char *wall[] = {
/* columns rows colors chars-per-pixel */
"64 64 44 1 ",
"  c #711616",
". c #731616",
"X c #741717",
"o c #741818",
"O c #751818",
"+ c #781818",
"@ c #7B1919",
"# c #7A1A1A",
"$ c #7D1B1B",
"% c #7C1C1C",
"& c #7F1D1D",
"* c #811C1C",
"= c #831F1F",
"- c #841E1E",
"; c #861F1F",
": c #832020",
"> c #852020",
", c #882020",
"< c #8C2323",
"1 c #8B2424",
"2 c #8F2525",
"3 c #902525",
"4 c #902626",
"5 c #942727",
"6 c #932828",
"7 c #942929",
"8 c #992B2B",
"9 c #9B2B2B",
"0 c #992C2C",
"q c #9D2D2D",
"w c #9F3030",
"e c #A02E2E",
"r c #A13232",
"t c #A33333",
"y c #A43232",
"u c #A73434",
"i c #A63535",
"p c #AA3636",
"a c #AB3737",
"s c #AA3838",
"d c #AC3939",
"f c #B03C3C",
"g c #B33F3F",
"h c #B34040",
/* pixels */
"=&>>,,,>6>>&#&=#;$;=8=.$;4<$#$=<$<$$#*$84#X$$$==;8#;=$##8;X;>>r4",
"##>,>6:>7,#=>=$;=$==8$X#;4q#$$=$<$$##*;4<&#$$==;845O$=#,8=#,>qd,",
"#:,>>q:#82X&==$=$$==8$X$=6p;$=$=8=##$*;7===&$$=4p;4X#$$8;=X,rhq=",
"X>>>r6>%40O==$==$$*;5$.$=;;X$;=48;X=$=5;##<====,sq>$.;;8=.;85q##",
"=>6i8>&&;8;&$*=$#$*2;$.$==$#X<r>q>.>=*8$=;22>>:;diO&O=;2$=$;>2.O",
">2,i;&o>>q<.*;*$#=$8;#.$*=$#$$>qp6&>;=4;&;>>2,>;q,..#=47;#$$;2#$",
">,>7>#;>2q4$$$;=#$$,,O#$;;$#$$=2yX===;8,O>=>2>4;4,OO$=<4#O#$;4#=",
"2=>27X&>2,4X.;4;=&;;<$$=*;=X$;;>q$.>2,q,O&>>1:747>O#&$<;#X#=2>#=",
">&><2&>12>r#X;=,$$2$$;#$$=>#&>,;8;.:,=q=X&>>2;=rr#+#;$4=X#$$;;>=",
">;;>2>&>>&i7;=$&<$e$$4=;;;4$#>,;7;O>><5=.>>>8;&>y;X$$$<$.#$$;4;=",
"<>==6:&&>$&=.&$;;4y4q$$##$=<,>;=q;O>>72&O>,15&+$<,X$$==$.$$$,82<",
";&=$2>&:,&##X##;$$pd##X#$=&,>>;7er===7=&$>>,<$X$=<$X$;$$#$$=,8=$",
";:&$,=#=<$#$&$===#27..X$$$$2;58$&=q;==;.=&&<2#+$=;$#==$$$$$==q;#",
"2>=&>&&;4$#$==;=&#8,..$$=$*=$$;*#X;7&$;$==&4<XX*$;$;$$$$*=;==q0O",
"4=#=,;=>8;#*$;*;#>0:O&;==#;$$+$,X$$,=X$=;&=e;#X==;;$$=$$,060q;e0",
"4$#,;$#;7,X=$;<7,72&.==;;;;$$$$=;#$=6##$=$=r,O#;*;=$$#=75;>q2&&=",
"4;#<<##;,e;#&4$;>7#X#>;;=<$$#$$=;##$,;$=*&6q=.$&;=$X$$88$=60##O2",
";5=$,>#$$76&44$,$;#X>==;=2,##$$$;$#$=<#$=6q==#$$;;$$;==$$qq>=&&,",
";4;$;,$$$$qqy>=;;;=&>>,,4,,=$$==;;#$$,24r,&&&=#=,:;;$$=#,i>O#$&1",
"=;;$;&;$$$$=0;=$26==>4>>>##;#$=$$4=#$&8p,&#O;,2;$#####$$7,#.=&=>",
";##==;&;&:=$7,$=qr7=4,,=>$$=;$$$<5r*=$;8$O#$,664$#$$$$=#<=#$&&,&",
"==;$#<&;,=$;5,=r2;qr4>;=;$$&<$#<=$84#;$8##&&2>:7.#$$$$&$;;.=$,;=",
"==>=#:2#&=>>8;=8=X#7&&#><$$;;$;;#=;8=>;<,;,;,>>8&X$$$$$;4;===>;:",
">,;=&>4,;,<2;,&8r#=r6&;,;==$;;$$$;,8$$24:##,2,,0=.=#$=$;>>====>&",
">;>>;>>;4;,;#>,=48dq77=$$,$$4*+$$=24#X=p4:;;,,6q=O&&=&;01>$$,>;;",
">4;=>>44=*&=78==2r=#X;y;#$,,$$##==q5$&;e60;=>,ry=O$==$r8>&&&>>&>",
";6;&;>,=>,8q4,#X4$X.X#<8$$>=X$#=$;pd>,;=&..X==62q#>>=8d;&#&>$&==",
">8:=;47$&,2,,,.$4<X#$$$q=#;$##$;$<r7p0;=$O==:>2,,=$;q9e=#&:,$$=>",
">q2X;r=$<;&X$>,=$;$+$$$48#;&#$=$$r;=&ir6,>>>>>>2=>&,2>rXO>>==$==",
";7q$r4$#2&&,;=$X#*;#$$$4p4O$#$*$,2>$&q=q7>>>,>>>2&:=$$8;O2,>==>;",
";;ppu$;$;2,;&#X#$$=*#$$;fyOO$=$$24>=2q=.X>>>>>;;><&$=$0>%:;=&>>>",
"=87;q7=#=$2##X$$$=$;$;$rif=#=$$<>,>=28:.;=>>4iiiqr,#;,y>O&&==>>>",
";q=##<X#$$,#+$$$#=$>==wpid2.=>1>>>>4=7=.>>>2pf2:>>7>;4p;X=;;:>>>",
"=5$$=$#.#;>$#$$$$=$,;s0&##7>;4,>>&>2$=<.>>>>swO..OO>$rd4.;==>>>>",
"42$#;$#$$=;$#$$$==;8rr=..O#$X,>;=,4,>&,=&=>,rq..=$&&482y2>>=;>>=",
"r;$.;=#$$$;$#$$$$$>df4o.#$&=&2=&;40>=:2>=>>>4iOO=$=$;##Xw0>==>>$",
"r$##$>#$$$==#$$=$=8rp=..;=#=>4>:24qeq52;&;>>2iO.#$=#=*#$,7>=;;=;",
"p;=<;,;$$$$4=;;$$,$&==.&;&$;2:>,>,,==r0>=>>>2p&.$$=$;$#=>=&==28q",
"<8.=>#;&$$$;5&$$;;$&&=$#$&=2=;=1,=<,=;r8:>>>qq;.$$$=;=#$;=$&1,<,",
"#7.#<;4q$$$*>>,44;$$;,&$=<;$22>;;&22=24$=>,<4=7#$$$$;;===&=>>=:$",
";,#X,;6>8===;;2$=$.==;>42>&=#===&;,1=,4&;#&$##=q,$$$>,&==$=;;>>=",
";$$X&<8;4r;;2>>>&$$=$;4;;===$=>==2>1=>88$==;==$8f=#$=,===$;*=;;2",
"$$##=;e5X45=2>>>#$=$=4>2>&=2$=;>4,>2;6r,#&==;==;rr.&=>2=&=#$;<1=",
"##$$$$2r#$78=;1:#$=#=>>&1;,e,>>24>>1;81&.X;==$#;>d:#>>;;#=$=>===",
"$$$$$==9,O>r;=;=#*$=,$;#>,i42&,>>>=>>8>##===$$&<$4pO=>,8==4<>=##",
"$$$$&=;74X=,2X42&=$,&$$=qs0:#>>>==>1;4>O&$$=$$,$$$pqX>28*4e=;#$$",
"$*===;;78O&>;==;=$$;$$$=p6&#O64$$;>2=;;#&=$$$;$$#=206=<r2p2=#$$$",
"=$$$>4,02%O>>>=&;;<=$#=,r$.O=q>&&;>7=&4;$$$$,=$$&>>>8=,pp22$X$==",
"$$;<20qd2#O>>;==,==#$&=2q#.=,q>O&>;82&>>$;,;$$#==>>>;q>;2..&>>07",
"4,>;==#4wO:>>$;;=&=$&;=44#X;<0>.>>;2rO;=7=$$###:>>>>=22#&O.==O=8",
"i&==&===77$>=$;==$>>&==22OO>67=.>>>>82O$5;X$#$&=>>>>>>1&=>>>;*$=",
"5>.$>>;>>:&=,2>>==4>&&$;2#&>42$O>>>;20.#;9.#$$=>>,>>>>>:1>>>;===",
"r4#==;>>>=$=&;&>;<;>#$#=,&%:2i==>>22r0&.=8;O$=>>>>>>22;;2&=;=;yr",
"0e>&:;>>>=>>;2>&><;=#$$=,=&;<dr2>0eid,OO$;8&&>>>>,,4>,2=2=&==9r;",
".1q<>>>>,22,21>&>q;#$$$>2>=;>488e7,,i:..$$e<=:>>>>74>:>=;>>;4p,#",
"O&=O>212>>>>2>>>57<X$$=;1>==>2;O7=Or7#.#$;q,=>>>>>42&&>622;=ee;X",
"$==:&&&&=&=><=#58;,.O$=;2>&>2>=&2qqp;X.#$$6<X;$>>>w2#&25=##0q4qX",
"#>>>=>>>>>>18,,f7=8;#$=>2>>2,>==>,4y#.#$;$8<$<==,2s2O=<5=O#><25=",
"o=>>>>>>>>>q87q0q0y7#;$>77>>=$&>>=<5..$$$=q$*r,;>wr;O&<r=X$$$2#1",
"q=>>>>>>>>,q>,.=4;=q;#$;iq==#$;==$<q#.;$=r,$.;y>8r>#.=4s=X$$$>>2",
"2r;;>>>>>,76>&&#7*;X&&$r78,,;=;>*$,pp6:$r5$XO&2ph0&$&>qf;.$$$==>",
"=>0=>>,,>,841#=$;$&7=&;,=2,O>,;:=&;;rsiy7&#.$>;2s2$O&,r72.#=&=;<",
":=77==;;>4q4#O$$=$Oqr>>$;;>OX;=;;$=$#=>,>O.$$$&=q4.O=e>$q.#>>>;2",
">&=2;>,444>=.$$$=&=,r,>>$4;##&;==$=$#=&,>.#$$$=;20O#>$=Oq:O>>>22"
};
